<?xml version="1.0" encoding="UTF-8"?>
<svg xmlns="http://www.w3.org/2000/svg" xmlns:xlink="http://www.w3.org/1999/xlink" viewBox="0 0 50 50" width="50px" height="50px">
<g id="surface53608972">
<path style="fill-rule:nonzero;fill:rgb(94.509804%,76.862746%,5.882353%);fill-opacity:1;stroke-width:10;stroke-linecap:butt;stroke-linejoin:round;stroke:rgb(100%,100%,100%);stroke-opacity:1;stroke-miterlimit:10;" d="M 154.794313 27.514881 C 157.282739 27.486442 159.586311 28.794643 160.837633 30.92758 C 162.088956 33.074736 162.088956 35.719577 160.837633 37.866733 C 159.586311 40.013889 157.282739 41.32209 154.794313 41.279432 L 17.205688 41.279432 C 14.717262 41.32209 12.413691 40.013889 11.162368 37.866733 C 9.911045 35.719577 9.911045 33.074736 11.162368 30.92758 C 12.413691 28.794643 14.717262 27.486442 17.205688 27.514881 Z M 154.794313 79.117725 C 157.282739 79.089286 159.586311 80.383268 160.837633 82.530424 C 162.088956 84.67758 162.088956 87.322421 160.837633 89.469577 C 159.586311 91.616733 157.282739 92.910715 154.794313 92.882276 L 17.205688 92.882276 C 14.717262 92.910715 12.413691 91.616733 11.162368 89.469577 C 9.911045 87.322421 9.911045 84.67758 11.162368 82.530424 C 12.413691 80.383268 14.717262 79.089286 17.205688 79.117725 Z M 154.794313 130.72057 C 157.282739 130.677911 159.586311 131.986112 160.837633 134.133268 C 162.088956 136.280424 162.088956 138.925266 160.837633 141.072422 C 159.586311 143.205358 157.282739 144.513559 154.794313 144.48512 L 17.205688 144.48512 C 14.717262 144.513559 12.413691 143.205358 11.162368 141.072422 C 9.911045 138.925266 9.911045 136.280424 11.162368 134.133268 C 12.413691 131.986112 14.717262 130.677911 17.205688 130.72057 Z M 154.794313 130.72057 " transform="matrix(0.274709,0,0,0.274709,1.375,1.375)"/>
<path style=" stroke:none;fill-rule:nonzero;fill:rgb(94.509804%,76.862746%,5.882353%);fill-opacity:1;" d="M 6.101562 8.933594 C 5.417969 8.925781 4.785156 9.285156 4.441406 9.871094 C 4.097656 10.460938 4.097656 11.1875 4.441406 11.777344 C 4.785156 12.367188 5.417969 12.726562 6.101562 12.714844 L 43.898438 12.714844 C 44.582031 12.726562 45.214844 12.367188 45.558594 11.777344 C 45.902344 11.1875 45.902344 10.460938 45.558594 9.871094 C 45.214844 9.285156 44.582031 8.925781 43.898438 8.933594 Z M 6.101562 23.109375 C 5.417969 23.101562 4.785156 23.457031 4.441406 24.046875 C 4.097656 24.636719 4.097656 25.363281 4.441406 25.953125 C 4.785156 26.542969 5.417969 26.898438 6.101562 26.890625 L 43.898438 26.890625 C 44.582031 26.898438 45.214844 26.542969 45.558594 25.953125 C 45.902344 25.363281 45.902344 24.636719 45.558594 24.046875 C 45.214844 23.457031 44.582031 23.101562 43.898438 23.109375 Z M 6.101562 37.285156 C 5.417969 37.273438 4.785156 37.632812 4.441406 38.222656 C 4.097656 38.8125 4.097656 39.539062 4.441406 40.128906 C 4.785156 40.714844 5.417969 41.074219 6.101562 41.066406 L 43.898438 41.066406 C 44.582031 41.074219 45.214844 40.714844 45.558594 40.128906 C 45.902344 39.539062 45.902344 38.8125 45.558594 38.222656 C 45.214844 37.632812 44.582031 37.273438 43.898438 37.285156 Z M 6.101562 37.285156 "/>
</g>
</svg>
